<svg id="layer" xmlns="http://www.w3.org/2000/svg" viewBox="0 0 137.2 62.92"><path id="Combined-Shape" d="M336.2,323.86a7.35,7.35,0,1,1,10.4,0A7.3,7.3,0,0,1,336.2,323.86Zm-24.6,24.7a5.52,5.52,0,1,1,7.8,0A5.62,5.62,0,0,1,311.6,348.56Zm38.9-13a5.52,5.52,0,1,1,7.8,0A5.43,5.43,0,0,1,350.5,335.56Zm-13,13a5.52,5.52,0,1,1,7.8,0A5.62,5.62,0,0,1,337.5,348.56Zm27.3-1.3a3.68,3.68,0,1,1,5.2,0A3.74,3.74,0,0,1,364.8,347.26Zm-13,13a3.68,3.68,0,1,1,5.2,0A3.74,3.74,0,0,1,351.8,360.26Zm-28.6-23.4a7.35,7.35,0,1,1,10.4,0A7.3,7.3,0,0,1,323.2,336.86Zm0-25.9a7.35,7.35,0,1,1,10.4,0A7.49,7.49,0,0,1,323.2,311Zm-12.9,12.9a7.35,7.35,0,1,1,10.4,0A7.3,7.3,0,0,1,310.3,323.86Zm-26.1,0a7.35,7.35,0,1,1,10.4,0A7.3,7.3,0,0,1,284.2,323.86Zm-24.7,24.7a5.52,5.52,0,1,1,7.8,0A5.62,5.62,0,0,1,259.5,348.56Zm39-13a5.52,5.52,0,1,1,7.8,0A5.43,5.43,0,0,1,298.5,335.56Zm-13,13a5.52,5.52,0,1,1,7.8,0A5.62,5.62,0,0,1,285.5,348.56Zm-50.6-1.3a3.68,3.68,0,1,1,5.2,0A3.74,3.74,0,0,1,234.9,347.26Zm13,13a3.68,3.68,0,1,1,5.2,0A3.74,3.74,0,0,1,247.9,360.26Zm51.9,0a3.68,3.68,0,1,1,5.2,0A3.74,3.74,0,0,1,299.8,360.26Zm-53.2-24.7a5.52,5.52,0,1,1,7.8,0A5.43,5.43,0,0,1,246.6,335.56Zm24.6,1.3a7.35,7.35,0,1,1,10.4,0A7.3,7.3,0,0,1,271.2,336.86Zm0-25.9a7.35,7.35,0,1,1,10.4,0A7.49,7.49,0,0,1,271.2,311Zm-13,12.9a7.35,7.35,0,1,1,10.4,0A7.3,7.3,0,0,1,258.2,323.86Z" transform="translate(-233.85 -298.39)"/></svg>