<svg width="52" height="23" viewBox="0 0 52 23" fill="none" xmlns="http://www.w3.org/2000/svg">
<path d="M38.7915 9.31148C37.6924 8.25149 37.6924 6.57012 38.7915 5.51013C39.8907 4.45014 41.6341 4.45014 42.7332 5.51013C43.8324 6.57012 43.8324 8.25149 42.7332 9.31148C41.6341 10.3715 39.8907 10.3715 38.7915 9.31148ZM29.4679 18.3397C28.672 17.5721 28.672 16.2928 29.4679 15.4887C30.2638 14.7211 31.5904 14.7211 32.4242 15.4887C33.2201 16.2563 33.2201 17.5356 32.4242 18.3397C31.5904 19.1073 30.2638 19.1073 29.4679 18.3397ZM44.2114 13.588C43.4155 12.8204 43.4155 11.5411 44.2114 10.737C45.0073 9.9694 46.3338 9.9694 47.1676 10.737C47.9636 11.5046 47.9636 12.7839 47.1676 13.588C46.3338 14.3921 45.0073 14.3921 44.2114 13.588ZM39.2843 18.3397C38.4883 17.5721 38.4883 16.2928 39.2843 15.4887C40.0802 14.7211 41.4067 14.7211 42.2405 15.4887C43.0364 16.2563 43.0364 17.5356 42.2405 18.3397C41.4067 19.1073 40.1181 19.1073 39.2843 18.3397ZM49.6312 17.8645C49.1006 17.3528 49.1006 16.4756 49.6312 15.9639C50.1618 15.4521 51.0714 15.4521 51.602 15.9639C52.1327 16.4756 52.1327 17.3528 51.602 17.8645C51.0335 18.3762 50.1618 18.3762 49.6312 17.8645ZM44.7041 22.6162C44.1735 22.1045 44.1735 21.2273 44.7041 20.7155C45.2347 20.2038 46.1443 20.2038 46.6749 20.7155C47.2055 21.2273 47.2055 22.1045 46.6749 22.6162C46.1064 23.1279 45.2347 23.1279 44.7041 22.6162ZM33.8644 14.0632C32.7653 13.0032 32.7653 11.3218 33.8644 10.2618C34.9636 9.20183 36.707 9.20183 37.8061 10.2618C38.9053 11.3218 38.9053 13.0032 37.8061 14.0632C36.7449 15.1232 34.9636 15.1232 33.8644 14.0632ZM33.8644 4.59634C32.7653 3.53635 32.7653 1.85499 33.8644 0.794994C34.9636 -0.264998 36.707 -0.264998 37.8061 0.794994C38.9053 1.85499 38.9053 3.53635 37.8061 4.59634C36.7449 5.61978 34.9636 5.61978 33.8644 4.59634ZM28.9752 9.31148C27.8761 8.25149 27.8761 6.57012 28.9752 5.51013C30.0743 4.45014 31.8178 4.45014 32.9169 5.51013C34.016 6.57012 34.016 8.25149 32.9169 9.31148C31.8178 10.3715 30.0364 10.3715 28.9752 9.31148ZM19.0831 9.31148C17.984 8.25149 17.984 6.57012 19.0831 5.51013C20.1822 4.45014 21.9257 4.45014 23.0248 5.51013C24.1239 6.57012 24.1239 8.25149 23.0248 9.31148C21.9257 10.3715 20.1822 10.3715 19.0831 9.31148ZM9.72157 18.3397C8.92566 17.5721 8.92566 16.2928 9.72157 15.4887C10.5175 14.7211 11.844 14.7211 12.6778 15.4887C13.4738 16.2563 13.4738 17.5356 12.6778 18.3397C11.8819 19.1073 10.5554 19.1073 9.72157 18.3397ZM24.5029 13.588C23.707 12.8204 23.707 11.5411 24.5029 10.737C25.2988 9.9694 26.6254 9.9694 27.4592 10.737C28.2551 11.5046 28.2551 12.7839 27.4592 13.588C26.6254 14.3921 25.2988 14.3921 24.5029 13.588ZM19.5758 18.3397C18.7799 17.5721 18.7799 16.2928 19.5758 15.4887C20.3717 14.7211 21.6983 14.7211 22.5321 15.4887C23.328 16.2563 23.328 17.5356 22.5321 18.3397C21.6983 19.1073 20.3717 19.1073 19.5758 18.3397ZM0.397959 17.8645C-0.132653 17.3528 -0.132653 16.4756 0.397959 15.9639C0.928571 15.4521 1.83819 15.4521 2.36881 15.9639C2.89942 16.4756 2.89942 17.3528 2.36881 17.8645C1.80029 18.3762 0.928571 18.3762 0.397959 17.8645ZM5.32507 22.6162C4.79446 22.1045 4.79446 21.2273 5.32507 20.7155C5.85569 20.2038 6.76531 20.2038 7.29592 20.7155C7.82653 21.2273 7.82653 22.1045 7.29592 22.6162C6.7274 23.1279 5.85569 23.1279 5.32507 22.6162ZM24.9956 22.6162C24.465 22.1045 24.465 21.2273 24.9956 20.7155C25.5262 20.2038 26.4359 20.2038 26.9665 20.7155C27.4971 21.2273 27.4971 22.1045 26.9665 22.6162C26.398 23.1279 25.5262 23.1279 24.9956 22.6162ZM4.83236 13.588C4.03644 12.8204 4.03644 11.5411 4.83236 10.737C5.62828 9.9694 6.95481 9.9694 7.78863 10.737C8.58455 11.5046 8.58455 12.7839 7.78863 13.588C6.95481 14.3921 5.62828 14.3921 4.83236 13.588ZM14.156 14.0632C13.0569 13.0032 13.0569 11.3218 14.156 10.2618C15.2551 9.20183 16.9985 9.20183 18.0977 10.2618C19.1968 11.3218 19.1968 13.0032 18.0977 14.0632C16.9985 15.1232 15.2551 15.1232 14.156 14.0632ZM14.156 4.59634C13.0569 3.53635 13.0569 1.85499 14.156 0.794994C15.2551 -0.264998 16.9985 -0.264998 18.0977 0.794994C19.1968 1.85499 19.1968 3.53635 18.0977 4.59634C16.9985 5.61978 15.2551 5.61978 14.156 4.59634ZM9.22886 9.31148C8.12974 8.25149 8.12974 6.57012 9.22886 5.51013C10.328 4.45014 12.0714 4.45014 13.1706 5.51013C14.2697 6.57012 14.2697 8.25149 13.1706 9.31148C12.1093 10.3715 10.328 10.3715 9.22886 9.31148Z" fill="white"/>
</svg>
