<svg width="50" height="50" viewBox="0 0 50 50" fill="none" xmlns="http://www.w3.org/2000/svg">
<path d="M24.9842 1.88623C34.2131 8.08039 44.7967 7.69815 47.8201 7.69815C47.1598 42.9275 42.1197 38.2341 24.9842 48.1122C7.84878 38.2354 2.83978 42.9275 2.18237 7.69815C5.1703 7.69815 15.7554 8.08039 24.9842 1.88623Z" fill="white"/>
<path d="M24.9843 1.88615L26.3169 0.394369C25.9354 0.138709 25.4667 0 24.9843 0C24.502 0 24.0333 0.138709 23.6517 0.394369L24.9843 1.88615ZM47.8202 7.69807L49.9997 7.72885C50.0042 7.47842 49.9512 7.22973 49.8437 6.99723C49.7362 6.76474 49.5764 6.55309 49.3735 6.37463C49.1707 6.19616 48.9289 6.05444 48.6622 5.95771C48.3956 5.86098 48.1093 5.81118 47.8202 5.81121V7.69807ZM24.9843 48.1121L23.7776 49.6834C24.1349 49.8898 24.5548 50 24.9843 50C25.4138 50 25.8337 49.8898 26.191 49.6834L24.9843 48.1121ZM2.18246 7.69807V5.81121C1.89348 5.81135 1.60742 5.86128 1.34092 5.95808C1.07442 6.05488 0.832798 6.19663 0.630118 6.37508C0.427439 6.55353 0.267746 6.76512 0.160332 6.99753C0.0529178 7.22994 -7.36168e-05 7.47853 0.00444174 7.72885L2.18246 7.69807ZM23.6517 3.37793C33.538 10.0133 44.8501 9.5862 47.8217 9.5862V5.81121C44.7479 5.81121 34.8913 6.14728 26.3199 0.394369L23.6517 3.37793ZM45.6437 7.66728C45.4808 16.4333 45.0514 22.6172 44.2326 27.1977C43.4227 31.7307 42.2663 34.4462 40.7768 36.3549C39.2681 38.3366 37.3714 39.5129 34.5715 40.9649C31.742 42.4323 28.1692 44.0139 23.7791 46.5408L26.1925 49.6834C30.3694 47.2719 33.8519 45.7353 36.8087 44.2037C39.7892 42.6555 42.41 40.9521 44.3866 38.4688C46.3825 35.9111 47.6796 32.5786 48.5324 27.7749C49.3793 23.0186 49.8295 16.5782 49.9968 7.72885L45.6437 7.66728ZM26.191 46.5408C21.8009 44.0139 18.2296 42.4362 15.4046 40.9649C12.6032 39.5142 10.7139 38.3379 9.20958 36.3562C7.72894 34.4488 6.57108 31.7384 5.76413 27.199C4.94682 22.6172 4.52039 16.4333 4.35604 7.66728L0 7.72885C0.167312 16.5795 0.614465 23.0186 1.45843 27.7736C2.31276 32.5773 3.60684 35.9098 5.60422 38.4675C7.57495 40.9508 10.1942 42.6555 13.1718 44.2037C16.1242 45.734 19.6052 47.2719 23.7835 49.6834L26.191 46.5408ZM2.17802 9.5862C5.12005 9.5862 16.4321 10.0133 26.3125 3.37793L23.6473 0.394369C15.0744 6.14728 5.21778 5.81121 2.17802 5.81121V9.5862Z" fill="#3375BB"/>
</svg>
