<svg width="331" height="331" viewBox="0 0 331 331" fill="none" xmlns="http://www.w3.org/2000/svg">
<path d="M275.869 186.174H34.5828V193.608H275.869V186.174Z" fill="#EBEBEB"/>
<path d="M55.4557 192.694L37.3765 316.799H41.2558L63.5519 193.608L55.4557 192.694Z" fill="#EBEBEB"/>
<path d="M258.829 191.907L277.901 316.8H274.028L250.726 193.046L258.829 191.907Z" fill="#EBEBEB"/>
<path d="M164.368 232.938L191.662 316.801H186.691L154.716 232.938H164.368Z" fill="#E0E0E0"/>
<path d="M164.368 232.938H163.706H161.852L154.69 232.978L154.756 232.879C160.237 247.158 172.054 278.041 185.744 313.789C186.115 314.768 186.485 315.775 186.856 316.708L186.697 316.602H191.662L191.497 316.827C183.877 293.32 177.078 272.367 172.186 257.287C169.75 249.733 167.791 243.656 166.44 239.453C165.778 237.354 165.248 235.726 164.891 234.613L164.494 233.349C164.408 233.064 164.368 232.912 164.368 232.912C164.368 232.912 164.421 233.044 164.514 233.322L164.931 234.56C165.295 235.666 165.831 237.275 166.52 239.353C167.896 243.544 169.882 249.601 172.358 257.121C177.29 272.222 184.142 293.194 191.821 316.701L191.894 316.926H186.598L186.552 316.814C186.188 315.847 185.81 314.874 185.439 313.894C171.835 278.094 160.085 247.178 154.663 232.919V232.819H154.769L161.972 232.859H163.805C164.176 232.925 164.368 232.938 164.368 232.938Z" fill="#263238"/>
<path d="M110.653 232.938L83.3591 316.801H88.3241L120.305 232.938H110.653Z" fill="#E0E0E0"/>
<path d="M110.653 232.938C110.653 232.938 110.859 232.938 111.269 232.938H113.103L120.305 232.898H120.411L120.371 232.998C114.956 247.257 103.206 278.173 89.6017 313.974L88.4829 316.893L88.4432 317.006H83.1472L83.22 316.78L102.689 257.2L108.528 239.432C109.19 237.354 109.753 235.745 110.117 234.64L110.534 233.402C110.627 233.124 110.68 232.991 110.68 232.991C110.68 232.991 110.64 233.143 110.554 233.428L110.157 234.692C109.799 235.805 109.276 237.433 108.608 239.532C107.251 243.735 105.298 249.813 102.862 257.366C97.9628 272.446 91.1707 293.399 83.551 316.906L83.3855 316.681H88.3505L88.1917 316.787L89.3038 313.868C102.994 278.12 114.811 247.211 120.259 232.965L120.332 233.064L113.162 233.024H111.315L110.653 232.938Z" fill="#263238"/>
<path d="M155.418 234.778C155.268 234.905 155.109 235.021 154.941 235.123L153.538 236.049L148.367 239.439C144.005 242.312 137.987 246.297 131.374 250.733L114.44 262.152L109.303 265.601L107.906 266.488C107.748 266.605 107.58 266.707 107.403 266.793C107.549 266.663 107.703 266.543 107.866 266.435L109.23 265.462L114.307 261.927C118.604 258.961 124.568 254.89 131.188 250.454C137.808 246.019 143.839 242.06 148.242 239.24C150.439 237.837 152.214 236.705 153.471 235.93L154.908 235.056C155.071 234.951 155.241 234.858 155.418 234.778V234.778Z" fill="#263238"/>
<path d="M103.053 143.535C103.053 143.535 94.5004 144.416 93.2558 149.566C92.0113 154.716 87.9598 218.414 93.2558 227.437C98.5518 236.46 166.738 235.202 171.471 233.964C176.204 232.726 178.435 229.655 177.952 225.901C177.469 222.148 131.036 217.494 131.036 217.494L133.87 151.016C133.87 151.016 117.174 142.608 103.053 143.535Z" fill="#35CAE5"/>
<path d="M177.992 227.51H177.787H177.178L174.841 227.569C172.808 227.622 169.869 227.649 166.235 227.642C158.953 227.642 148.923 227.39 137.861 226.596C132.334 226.192 127.071 225.683 122.298 225.14C117.525 224.597 113.235 224.001 109.647 223.438C107.846 223.174 106.231 222.889 104.808 222.651C103.384 222.412 102.16 222.194 101.16 221.989L98.863 221.545L98.2672 221.426L98.0686 221.373C98.1367 221.364 98.2057 221.364 98.2738 221.373L98.8762 221.459L101.187 221.836C102.186 222.008 103.411 222.214 104.841 222.425C106.271 222.637 107.886 222.915 109.68 223.16C113.275 223.697 117.565 224.246 122.331 224.789C127.097 225.332 132.36 225.815 137.888 226.219C148.943 227.013 158.973 227.285 166.235 227.364C169.863 227.404 172.802 227.41 174.841 227.404H177.793L177.992 227.51Z" fill="#455A64"/>
<path d="M167.983 267.733C167.93 267.812 157.126 260.219 143.859 250.786C130.593 241.352 119.875 233.626 119.928 233.574C119.981 233.521 130.785 241.087 144.058 250.527C157.331 259.967 168.035 267.653 167.983 267.733Z" fill="#263238"/>
<path d="M212.085 199.924C212.085 199.924 227.404 199.924 228.033 214.197C228.662 228.469 183.44 303.765 183.44 303.765L169.121 296.966L199.825 223.901L133.201 217.348L135.088 200.586L212.085 199.924Z" fill="#FFBE9D"/>
<path d="M186.466 299.423L186.022 300.436C186.022 300.436 200.056 314.867 198.799 318.191L164.964 302.965L170.492 291.909C174.47 296.51 179.621 299.145 186.466 299.423Z" fill="#35CAE5"/>
<g opacity="0.6">
<path opacity="0.6" d="M172.299 297.059C171.929 297.013 171.554 297.103 171.247 297.315C170.939 297.526 170.72 297.842 170.631 298.204C170.569 298.573 170.652 298.951 170.861 299.26C171.071 299.569 171.391 299.786 171.756 299.866C172.148 299.914 172.544 299.815 172.868 299.589C173.191 299.363 173.42 299.026 173.51 298.641C173.536 298.251 173.409 297.866 173.156 297.568C172.902 297.27 172.543 297.083 172.153 297.046" fill="white"/>
</g>
<g opacity="0.6">
<path opacity="0.6" d="M164.964 302.971L166.288 300.323L198.229 315.887C198.229 315.887 199.441 317.211 198.792 318.204L164.964 302.971Z" fill="white"/>
</g>
<path d="M186.095 300.581C186.015 300.74 185.155 300.449 184.109 300.614C183.063 300.78 182.308 301.276 182.183 301.144C182.057 301.012 182.739 300.164 184.016 299.986C185.294 299.807 186.201 300.442 186.095 300.581Z" fill="white"/>
<path d="M188.988 303.646C188.955 303.818 188.107 303.778 187.234 304.228C186.36 304.679 185.863 305.341 185.704 305.261C185.546 305.182 185.857 304.195 186.956 303.659C188.054 303.123 189.054 303.487 188.988 303.646Z" fill="white"/>
<path d="M189.094 308.797C188.928 308.797 189.094 307.837 189.895 307.122C190.696 306.407 191.662 306.4 191.669 306.566C191.676 306.731 191.007 307.003 190.345 307.599C189.683 308.194 189.266 308.856 189.094 308.797Z" fill="white"/>
<path d="M183.103 146.11L185.823 154.432L170.988 155.59L169.26 151.135L183.103 146.11Z" fill="#FFBE9D"/>
<path d="M225.226 157.026C225.51 157.596 226.252 157.688 226.821 157.986C227.351 158.29 227.786 158.736 228.075 159.275C228.364 159.813 228.496 160.422 228.456 161.031C228.361 162.251 227.958 163.426 227.284 164.447C227.077 164.862 226.776 165.223 226.404 165.5C226.215 165.631 225.991 165.701 225.762 165.701C225.532 165.701 225.308 165.631 225.12 165.5C224.683 165.136 224.736 164.461 224.828 163.898C225.179 161.786 224.722 159.118 225.219 157.033" fill="#FFBE9D"/>
<path d="M126.561 52.6881C126.436 51.7597 126.662 50.818 127.196 50.0484C127.731 49.2789 128.534 48.7374 129.448 48.5307L145.825 38.1108C152.068 36.7074 159.933 47.1339 161.051 53.4229C162.182 60.3352 162.625 67.3424 162.375 74.3421C161.925 85.1062 154.868 86.2581 154.868 86.2581L160.164 122.052L134.644 106.317L126.561 52.6881Z" fill="#FFBE9D"/>
<path d="M157.649 62.3538C157.693 62.7058 157.597 63.061 157.384 63.344C157.17 63.627 156.854 63.8156 156.504 63.8697C156.159 63.9336 155.802 63.8579 155.513 63.6593C155.224 63.4607 155.025 63.1554 154.961 62.8105C154.917 62.4585 155.012 62.1033 155.226 61.8203C155.44 61.5373 155.756 61.3487 156.106 61.2946C156.451 61.2307 156.808 61.3064 157.097 61.505C157.386 61.7036 157.585 62.0089 157.649 62.3538V62.3538Z" fill="#263238"/>
<path d="M159.754 58.4879C159.622 58.6335 158.536 58.6136 157.165 59.1499C155.795 59.6861 154.888 60.401 154.716 60.3613C154.544 60.3216 154.716 60.1296 155.133 59.7986C155.708 59.3288 156.36 58.9616 157.06 58.7129C157.727 58.456 158.436 58.3236 159.151 58.3224C159.628 58.3091 159.82 58.4217 159.754 58.4879Z" fill="#263238"/>
<path d="M144.091 63.009C144.133 63.3617 144.036 63.7169 143.821 63.9997C143.606 64.2826 143.29 64.4709 142.939 64.525C142.595 64.5869 142.241 64.5103 141.953 64.3119C141.665 64.1135 141.468 63.8093 141.403 63.4658C141.358 63.1135 141.452 62.7574 141.666 62.474C141.88 62.1905 142.197 62.0024 142.549 61.9498C142.893 61.886 143.25 61.9617 143.539 62.1603C143.828 62.3589 144.027 62.6642 144.091 63.009Z" fill="#263238"/>
<path d="M145.514 61.2616C145.316 61.3411 144.296 60.732 142.714 60.5003C141.132 60.2686 139.894 60.5003 139.742 60.3944C139.589 60.2885 139.894 60.1759 140.404 60.0502C141.198 59.8925 142.014 59.8768 142.813 60.0038C143.588 60.1099 144.336 60.3615 145.018 60.7453C145.488 61.0167 145.64 61.2285 145.514 61.2616Z" fill="#263238"/>
<path d="M151.975 70.2649C152.714 69.9305 153.493 69.6924 154.292 69.5565C154.656 69.4771 155.001 69.3645 155.034 69.0997C155.022 68.7118 154.89 68.3371 154.656 68.0273C154.215 67.1446 153.738 66.2421 153.227 65.3197C151.241 61.4603 149.731 58.2694 149.917 58.19C150.102 58.1105 151.823 61.1756 153.822 65.0351L155.206 67.7625C155.494 68.1856 155.622 68.6967 155.57 69.2057C155.531 69.3431 155.461 69.4699 155.366 69.5765C155.271 69.6831 155.153 69.7668 155.021 69.8213C154.82 69.8997 154.611 69.9531 154.398 69.9802C153.606 70.1758 152.792 70.2714 151.975 70.2649V70.2649Z" fill="#263238"/>
<path d="M154.862 86.2848C149.917 87.016 144.866 86.3272 140.298 84.2988C140.298 84.2988 144.647 91.7397 155.107 89.5154L154.862 86.2848Z" fill="#EB996E"/>
<path d="M152.141 73.8329C151.785 73.3692 151.33 72.9911 150.808 72.7265C150.287 72.4619 149.713 72.3174 149.129 72.3037C148.791 72.3108 148.463 72.4202 148.189 72.6176C147.915 72.8151 147.707 73.0911 147.593 73.4092C147.479 73.8202 147.465 74.2527 147.554 74.67C147.643 75.0872 147.831 75.4768 148.103 75.8057C148.37 76.1537 148.732 76.4161 149.146 76.5607C149.56 76.7054 150.007 76.726 150.433 76.6199C151.124 76.3351 151.712 75.8482 152.121 75.2231C152.269 75.064 152.376 74.8707 152.432 74.6604C152.456 74.5278 152.451 74.3914 152.417 74.261C152.383 74.1306 152.32 74.0093 152.234 73.9057" fill="#EB996E"/>
<path d="M147.798 71.7744C148.036 71.7281 148.222 73.3103 149.705 74.2768C151.188 75.2433 152.856 74.8726 152.896 75.0911C152.896 75.1904 152.558 75.4419 151.843 75.5478C150.919 75.6683 149.981 75.4597 149.195 74.9587C148.44 74.4735 147.904 73.7138 147.699 72.8403C147.56 72.1584 147.692 71.7744 147.798 71.7744Z" fill="#263238"/>
<path d="M145.978 54.7539C145.839 55.1511 144.369 54.9856 142.668 55.2239C140.966 55.4622 139.563 55.9455 139.325 55.5946C139.219 55.4225 139.457 55.0451 139.987 54.6479C140.727 54.1591 141.569 53.8454 142.449 53.7306C143.329 53.6159 144.223 53.7032 145.064 53.9859C145.713 54.2838 146.037 54.5619 145.978 54.7539Z" fill="#263238"/>
<path d="M159.833 55.2241C159.549 55.5882 158.264 55.3896 156.762 55.5419C155.259 55.6942 154.014 56.0781 153.683 55.7604C153.531 55.6081 153.683 55.2506 154.22 54.8799C154.948 54.4128 155.779 54.1291 156.642 54.053C157.504 53.9769 158.372 54.1107 159.171 54.443C159.741 54.7276 159.952 55.0454 159.833 55.2241Z" fill="#263238"/>
<path d="M119.379 80.2014C119.643 75.4019 120.411 60.0369 123.51 51.656C126.608 43.2751 130.97 39.5215 135.459 37.754C137.154 37.0297 139.007 36.7552 140.84 36.9569C142.672 37.1587 144.421 37.83 145.918 38.9059C148.222 40.5344 149.559 45.8966 149.559 45.8966C149.559 45.8966 138.669 49.6568 135.657 56.4886C132.168 64.3002 131.546 68.1001 131.546 68.1001L130.606 72.2641C130.606 72.2641 132.652 90.3631 133.572 94.1101L118.809 108.383C119.293 103.669 119.114 84.9943 119.379 80.2014Z" fill="#263238"/>
<path d="M149.883 45.9224C149.883 45.9224 156.192 44.4991 159.376 51.4435C160.82 54.588 162.25 64.1075 162.25 64.1075C162.25 64.1075 162.786 56.329 161.952 52.0989C161.118 47.8687 158.37 42.7051 154.756 40.0902C151.141 37.4753 148.401 36.4889 142.747 37.4819C144.449 37.9076 145.995 38.8101 147.202 40.0836C148.056 41.0832 148.48 41.9703 149.883 45.9224Z" fill="#263238"/>
<path d="M131.665 68.6161C131.281 66.2858 128.554 65.0148 126.661 66.4249C125.621 67.1928 124.919 68.583 125.303 71.0589C126.336 77.6789 132.738 75.2559 132.718 75.0706C132.698 74.8852 132.115 71.3369 131.665 68.6161Z" fill="#FFBE9D"/>
<path d="M130.315 72.879C130.315 72.879 130.215 72.9783 130.037 73.0975C129.779 73.2542 129.472 73.3085 129.176 73.2497C128.441 73.1041 127.687 72.0846 127.468 70.9063C127.362 70.3436 127.385 69.7643 127.534 69.2116C127.561 68.9954 127.642 68.7892 127.767 68.6114C127.893 68.4335 128.061 68.2895 128.256 68.1921C128.383 68.1386 128.525 68.1305 128.658 68.169C128.79 68.2076 128.905 68.2905 128.984 68.4039C129.103 68.576 129.077 68.7084 129.117 68.7151C129.156 68.7217 129.242 68.5826 129.117 68.3178C129.055 68.1603 128.94 68.0293 128.792 67.9471C128.589 67.8393 128.351 67.8156 128.13 67.8809C127.867 67.9774 127.633 68.1392 127.45 68.3512C127.267 68.5632 127.141 68.8182 127.084 69.0924C126.894 69.7053 126.858 70.3555 126.978 70.9857C127.223 72.3097 128.097 73.4483 129.097 73.5741C129.281 73.5975 129.468 73.5794 129.645 73.5209C129.821 73.4625 129.982 73.3653 130.116 73.2365C130.328 73.0379 130.341 72.8856 130.315 72.879Z" fill="#EB996E"/>
<path d="M138.06 37.0256C138.06 37.0785 138.974 36.9461 140.43 36.9726C141.282 36.9893 142.127 37.139 142.933 37.4162C143.912 37.7781 144.811 38.3267 145.581 39.0314C147.005 40.3047 148.116 41.8909 148.824 43.6654C149.367 44.9894 149.486 45.9295 149.566 45.9162C149.556 45.704 149.525 45.4933 149.473 45.2873C148.945 42.8071 147.637 40.5613 145.739 38.8792C144.946 38.1436 144.011 37.5762 142.992 37.2109C142.165 36.934 141.296 36.7975 140.424 36.8071C139.839 36.8069 139.255 36.8445 138.676 36.9197C138.468 36.9379 138.262 36.9733 138.06 37.0256V37.0256Z" fill="#455A64"/>
<path d="M126.085 74.1038C126.087 74.0663 126.087 74.0287 126.085 73.9912L125.992 73.6933C125.946 73.5543 125.899 73.3888 125.84 73.2035L125.661 72.5415C125.3 71.0943 125.148 69.6029 125.211 68.1127C125.295 65.9022 125.838 63.7333 126.806 61.7442C128.043 59.336 129.808 57.2382 131.97 55.6075C133.079 54.7515 134.24 53.9644 135.445 53.2508C136.61 52.549 137.782 51.9665 138.868 51.3177C140.766 50.1594 142.572 48.8558 144.27 47.4185C145.719 46.1938 146.838 45.1413 147.58 44.3998C147.957 44.0291 148.242 43.7378 148.434 43.5326L148.652 43.3009C148.698 43.2479 148.725 43.2215 148.718 43.2148L148.639 43.281L148.401 43.4995L147.527 44.3535C146.752 45.0751 145.62 46.1078 144.157 47.306C142.454 48.7195 140.648 50.0051 138.755 51.1522C137.683 51.8142 136.498 52.3637 135.326 53.072C134.109 53.7854 132.939 54.577 131.824 55.442C129.626 57.0883 127.833 59.2143 126.581 61.6582C125.61 63.6751 125.077 65.8749 125.019 68.1127C124.973 69.6154 125.149 71.1166 125.542 72.5679L125.74 73.2299C125.813 73.4153 125.873 73.5742 125.919 73.7132L126.038 74.0111C126.065 74.0707 126.078 74.1038 126.085 74.1038Z" fill="#455A64"/>
<path d="M124.264 71.7738C124.264 71.7738 124.264 71.7341 124.264 71.6679L124.224 71.3501C124.224 71.0721 124.118 70.6881 124.065 70.1387C123.909 68.6476 123.885 67.1457 123.993 65.6503C124.154 63.4357 124.599 61.2509 125.317 59.1495C126.213 56.5828 127.521 54.1792 129.189 52.033C130.908 49.9119 132.913 48.0403 135.147 46.4722C137.133 44.9893 139.119 43.8242 140.701 42.7782C142.284 41.7323 143.601 40.9312 144.481 40.3222C144.925 40.0309 145.256 39.786 145.481 39.6205L145.739 39.4351L145.825 39.3623C145.825 39.3623 145.786 39.3623 145.726 39.4153L145.455 39.5808L144.428 40.2428C143.541 40.8187 142.231 41.633 140.609 42.626C138.987 43.619 137.054 44.8106 135.015 46.2934C132.776 47.8634 130.77 49.7422 129.057 51.8741C127.355 54.0409 126.024 56.4747 125.118 59.0767C124.392 61.1986 123.947 63.4063 123.794 65.6437C123.702 67.1457 123.753 68.653 123.946 70.1453C124.012 70.6749 124.105 71.0787 124.151 71.3568C124.151 71.4825 124.198 71.5885 124.218 71.6679C124.238 71.7473 124.257 71.7738 124.264 71.7738Z" fill="#455A64"/>
<path d="M159.608 97.2676C159.608 97.2676 168.142 100.736 169.777 105.178C171.412 109.621 183.818 146.302 183.818 146.302L169.419 151.823L162.852 121.636L159.608 97.2676Z" fill="#C531DF"/>
<path d="M115.493 201.433C115.493 201.433 203.539 197.388 209.066 198.845C214.594 200.301 217.897 203.088 218.996 209.715C220.095 216.341 237.069 304.136 237.069 304.136L221.631 308.677C221.631 308.677 199.97 259.226 199.05 250.951C198.13 242.676 195.078 225.715 195.078 225.715C195.078 225.715 161.607 226.265 136.961 225.715C112.315 225.166 115.625 202.353 115.625 202.353L115.493 201.433Z" fill="#FFBE9D"/>
<path d="M221.439 309.075L221.327 308.81C220.439 306.784 199.639 259.219 198.726 250.984C197.879 243.391 195.211 228.277 194.813 226.046C191.503 226.099 160.145 226.563 136.968 226.046C129.309 225.874 123.543 223.551 119.815 219.148C114.175 212.482 115.181 203.148 115.307 202.36L115.102 201.122H115.473C119.074 200.957 203.645 197.091 209.152 198.547C215.335 200.182 218.281 203.406 219.327 209.675C220.413 216.216 237.201 303.216 237.4 304.096L237.453 304.388L221.439 309.075ZM195.363 225.378L195.416 225.656C195.449 225.821 198.474 242.722 199.388 250.911C200.255 258.729 220.102 304.341 221.823 308.273L236.698 303.904C235.613 298.284 219.738 216.123 218.679 209.768C217.686 203.81 214.879 200.725 208.987 199.176C203.77 197.792 122.126 201.473 115.883 201.758L115.983 202.36V202.406C115.983 202.506 114.659 212.032 120.338 218.731C123.94 222.981 129.54 225.219 136.994 225.391C161.349 225.934 194.761 225.391 195.098 225.391L195.363 225.378Z" fill="#EB996E"/>
<path d="M121.437 153.948L123.655 167.665C123.655 167.665 114.023 185.916 112.937 201.606C112.421 209.06 116.697 224.326 116.697 224.326C116.697 224.326 150.618 228.053 168.916 227.576L188.438 226.722L191.881 196.224L169.969 193.059L170.3 151.499C170.3 151.499 174.272 140.556 174.576 137.319C175.278 130.487 174.987 123.576 168.161 114.718L159.608 97.268L156.755 95.944L158.112 117.082L133.525 93.7197L121.073 98.1882L117.545 114.838L121.437 153.948Z" fill="#BC27D6"/>
<g opacity="0.3">
<path opacity="0.3" d="M164.057 198.11C162.461 198.388 150.949 198.553 149.354 198.832C149.082 198.915 148.797 198.942 148.515 198.911C148.232 198.88 147.959 198.792 147.712 198.653C147.513 198.464 147.375 198.22 147.316 197.952C147.257 197.684 147.28 197.405 147.381 197.15C147.592 196.637 147.924 196.183 148.348 195.826C151.135 193.178 154.756 191.649 158.278 190.153C159.403 189.683 160.621 189.199 161.799 189.491C162.377 189.682 162.9 190.011 163.322 190.449C163.744 190.887 164.053 191.422 164.222 192.006C164.558 193.173 164.697 194.388 164.633 195.601" fill="black"/>
</g>
<g opacity="0.3">
<path opacity="0.3" d="M122.344 163.514C126.455 162.554 129.037 158.503 130.705 154.624C132.374 150.744 133.751 146.461 137.021 143.787C139.417 141.801 142.628 140.927 144.7 138.623C145.685 137.494 146.338 136.115 146.587 134.638C146.836 133.161 146.671 131.644 146.11 130.255C145.514 128.839 144.316 127.501 142.8 127.422C141.013 127.329 139.623 128.878 138.53 130.302C133.534 136.847 128.823 143.599 124.397 150.559C122.02 154.299 119.65 158.84 121.305 162.951" fill="black"/>
</g>
<path d="M122.371 100.372C122.371 100.372 115.413 102.583 112.897 106.946C110.382 111.308 106.211 132.492 105.205 138.199C104.199 143.905 99.3331 167.386 105.205 171.08C111.077 174.774 118.796 169.094 120.808 165.711C122.821 162.329 131.036 144.739 131.036 144.739L123.655 138.536C123.655 138.536 124.979 121.761 124.496 118.233C124.012 114.704 122.371 100.372 122.371 100.372Z" fill="#FFBE9D"/>
<path d="M100.551 143.926L116.697 144.978L124.072 136.319L126.111 122.682L125.568 96.5928C125.568 96.5928 111.157 100.108 108.038 111.064C105.728 119.16 100.551 143.926 100.551 143.926Z" fill="#BC27D6"/>
<path d="M129.123 113.069C128.196 112.943 127.011 114.036 127.799 116.671C128.461 118.868 129.706 121.007 129.613 122.231C129.52 123.456 129.044 126.005 129.044 127.329C128.986 128.623 128.86 129.914 128.666 131.195L117.677 144.435L127.19 152.829L134.717 141.006C134.717 141.006 136.988 141.383 138.305 139.874L140.291 137.603C140.291 137.603 145.389 135.716 144.349 132.969C144.349 132.969 145.859 131.532 144.488 129.229C144.488 129.229 145.203 126.832 144.164 125.422C144.164 125.422 144.071 122.211 143.217 121.642C142.363 121.073 133.532 120.98 133.532 120.98C133.051 119.512 132.497 118.069 131.871 116.657C130.904 115.062 130.414 113.241 129.123 113.069Z" fill="#FFBE9D"/>
<path d="M132.883 126.091C132.883 126.124 132.652 125.998 132.447 125.687C132.179 125.267 132.062 124.77 132.115 124.275C132.168 123.781 132.388 123.319 132.738 122.966C133.003 122.708 133.228 122.628 133.248 122.661C132.854 123.138 132.583 123.704 132.46 124.31C132.46 124.928 132.605 125.538 132.883 126.091V126.091Z" fill="#EB996E"/>
<path d="M143.793 125.185C142.462 125.573 141.092 125.815 139.709 125.906C138.337 126.106 136.947 126.152 135.564 126.045C136.925 125.808 138.297 125.647 139.675 125.562C141.04 125.358 142.414 125.232 143.793 125.185Z" fill="#EB996E"/>
<path d="M144.574 128.971C143.477 129.417 142.319 129.693 141.139 129.792C139.975 130.007 138.786 130.048 137.61 129.911C137.61 129.812 139.172 129.713 141.092 129.448C143.012 129.183 144.554 128.878 144.574 128.971Z" fill="#EB996E"/>
<path d="M144.382 132.857C142.67 133.382 140.869 133.56 139.086 133.38C139.957 133.189 140.844 133.076 141.734 133.042C142.61 132.904 143.496 132.842 144.382 132.857V132.857Z" fill="#EB996E"/>
<path d="M136.041 134.048C136.041 134.088 135.856 134.048 135.631 133.922C135.334 133.72 135.126 133.412 135.048 133.062C134.963 132.715 135.01 132.349 135.18 132.036C135.313 131.804 135.458 131.711 135.492 131.738C135.525 131.764 135.22 132.314 135.379 132.982C135.538 133.651 136.087 133.962 136.041 134.048Z" fill="#EB996E"/>
<path d="M133.87 130.897C133.87 130.93 133.651 130.818 133.446 130.533C133.183 130.157 133.031 129.714 133.009 129.255C132.982 128.796 133.083 128.337 133.301 127.931C133.479 127.627 133.651 127.494 133.685 127.521C133.482 128.068 133.37 128.645 133.354 129.229C133.438 129.808 133.612 130.371 133.87 130.897Z" fill="#EB996E"/>
<path d="M141.668 137.034C141.188 137.289 140.661 137.442 140.119 137.484C139.594 137.635 139.044 137.674 138.504 137.597C138.983 137.34 139.51 137.186 140.053 137.147C140.577 136.992 141.128 136.954 141.668 137.034V137.034Z" fill="#EB996E"/>
<path d="M137.412 121.04C137.412 121.139 136.088 121.139 134.413 121.305C132.738 121.47 131.447 121.728 131.42 121.636C132.359 121.238 133.361 121.014 134.38 120.974C135.386 120.816 136.413 120.839 137.412 121.04Z" fill="#EB996E"/>
<path d="M166.48 152.862H221.201C222.166 152.862 223.092 153.246 223.775 153.929C224.458 154.612 224.842 155.538 224.842 156.503V195.29H162.852V156.497C162.854 155.534 163.236 154.612 163.916 153.931C164.596 153.25 165.518 152.866 166.48 152.862V152.862Z" fill="#E0E0E0"/>
<path d="M224.842 198.11H152.022C152.022 197.369 152.316 196.659 152.84 196.135C153.364 195.611 154.074 195.316 154.815 195.316H224.842V198.11Z" fill="#E0E0E0"/>
<path d="M222.551 155.59H164.732V195.316H222.551V155.59Z" fill="white"/>
<path d="M222.545 195.29C222.545 195.29 222.545 195.038 222.545 194.561C222.545 194.085 222.545 193.37 222.545 192.456C222.545 190.609 222.545 187.908 222.505 184.453C222.505 177.541 222.465 167.631 222.432 155.563L222.571 155.702H164.759L164.931 155.53C164.931 169.717 164.931 183.188 164.931 195.25L164.778 195.091L206.425 195.17L218.341 195.217H221.512H222.326H222.611H222.346H221.545H218.407L206.551 195.256L164.798 195.336H164.639V195.29C164.639 183.221 164.639 169.75 164.639 155.57V155.397H164.812H222.624H222.763V155.57C222.763 167.671 222.71 177.614 222.69 184.545C222.69 187.988 222.69 190.675 222.69 192.489C222.69 193.396 222.69 194.091 222.69 194.568C222.69 195.045 222.545 195.29 222.545 195.29Z" fill="#263238"/>
<path d="M224.537 195.29C224.537 195.39 208.907 195.462 189.63 195.462C170.353 195.462 154.716 195.39 154.716 195.29C154.716 195.191 170.346 195.118 189.63 195.118C208.914 195.118 224.537 195.224 224.537 195.29Z" fill="#263238"/>
<path d="M193.635 190.649C202.026 190.649 208.828 183.847 208.828 175.457C208.828 167.066 202.026 160.264 193.635 160.264C185.244 160.264 178.442 167.066 178.442 175.457C178.442 183.847 185.244 190.649 193.635 190.649Z" fill="#35CAE5"/>
<path d="M184.195 175.827L187.412 172.782L191.854 176.873L200.599 168.645L203.777 171.65L191.808 183.01L184.195 175.827Z" fill="white"/>
<path d="M128.68 131.195C128.752 131.254 124.191 136.762 118.491 143.488C112.792 150.214 108.111 155.616 108.038 155.57C107.966 155.523 112.527 150.009 118.227 143.276C123.926 136.544 128.607 131.135 128.68 131.195Z" fill="#EB996E"/>
<path d="M127.892 122.662C127.743 124.583 127.48 126.493 127.104 128.382C126.843 130.292 126.468 132.184 125.979 134.049C126.127 132.126 126.39 130.214 126.767 128.322C127.031 126.415 127.407 124.525 127.892 122.662V122.662Z" fill="#263238"/>
<path d="M170.299 151.499C170.323 151.363 170.359 151.231 170.405 151.101L170.763 149.989C171.081 149.029 171.551 147.639 172.087 145.911C172.727 143.893 173.262 141.842 173.689 139.768C174.222 137.235 174.46 134.65 174.397 132.062C174.158 127.352 172.835 122.76 170.531 118.644C169.847 117.39 169.096 116.175 168.28 115.003C168.002 114.586 167.764 114.274 167.618 114.056C167.533 113.947 167.46 113.83 167.4 113.705C167.501 113.797 167.592 113.899 167.671 114.01C167.843 114.221 168.102 114.519 168.4 114.93C169.26 116.077 170.047 117.278 170.756 118.524C171.81 120.38 172.677 122.336 173.345 124.363C174.175 126.846 174.654 129.433 174.768 132.049C174.835 134.665 174.586 137.278 174.027 139.834C173.581 141.914 173.02 143.967 172.345 145.984C171.776 147.705 171.273 149.089 170.915 150.036C170.743 150.477 170.604 150.841 170.498 151.128C170.447 151.259 170.381 151.384 170.299 151.499V151.499Z" fill="#263238"/>
<path d="M156.232 130.884C156.259 131.192 156.259 131.502 156.232 131.811C156.231 132.174 156.205 132.537 156.153 132.896C156.105 133.376 156.032 133.854 155.934 134.326C155.828 134.899 155.687 135.465 155.511 136.021C155.324 136.666 155.103 137.3 154.849 137.921C154.238 139.322 153.479 140.653 152.585 141.893C151.668 143.13 150.618 144.262 149.453 145.269C148.943 145.705 148.408 146.112 147.851 146.487C147.375 146.825 146.877 147.133 146.362 147.407C145.934 147.654 145.492 147.876 145.038 148.069C144.712 148.228 144.376 148.363 144.032 148.473C143.745 148.591 143.448 148.682 143.144 148.745C143.111 148.672 144.382 148.281 146.209 147.215C146.709 146.928 147.193 146.614 147.659 146.275C148.176 145.931 148.672 145.494 149.215 145.051C151.496 143.044 153.305 140.557 154.511 137.769C154.763 137.163 154.984 136.544 155.173 135.915C155.356 135.368 155.508 134.811 155.63 134.247C156.179 132.208 156.166 130.884 156.232 130.884Z" fill="#263238"/>
<path d="M174.431 136.901C174.393 136.865 174.361 136.822 174.338 136.775L174.106 136.371C173.888 136.007 173.59 135.511 173.212 134.895C172.835 134.28 172.246 133.525 171.63 132.664C171.015 131.804 170.233 130.864 169.406 129.811C166.003 125.654 160.979 120.192 155.219 114.36C149.46 108.528 144.051 103.444 140.086 99.796L137.385 97.3797C136.591 96.6779 135.902 96.0557 135.326 95.579L134.002 94.4602L133.665 94.1623C133.621 94.1314 133.583 94.0934 133.552 94.0498C133.599 94.0731 133.644 94.102 133.684 94.1359C133.784 94.2087 133.903 94.2947 134.042 94.4073L135.406 95.4731L137.504 97.234C138.318 97.9357 139.232 98.7368 140.238 99.6172C144.257 103.192 149.678 108.27 155.464 114.095C161.25 119.921 166.235 125.429 169.591 129.632C170.412 130.698 171.154 131.658 171.789 132.519L173.325 134.796C173.676 135.458 173.987 135.935 174.166 136.312L174.378 136.709C174.422 136.837 174.439 136.901 174.431 136.901Z" fill="#263238"/>
<path d="M161.574 167.526C161.453 167.569 161.326 167.593 161.197 167.599L160.118 167.751C159.178 167.877 157.808 168.023 156.146 168.175C152.763 168.479 148.07 168.724 142.906 168.665C137.742 168.605 133.029 168.228 129.666 167.844C127.978 167.652 126.614 167.466 125.694 167.314L124.615 167.142C124.488 167.128 124.364 167.099 124.244 167.056C124.372 167.04 124.501 167.04 124.628 167.056L125.714 167.169C126.654 167.281 128.024 167.427 129.686 167.586C133.055 167.91 137.736 168.248 142.926 168.307C148.116 168.367 152.783 168.155 156.166 167.917C157.854 167.797 159.224 167.692 160.138 167.605L161.223 167.519C161.34 167.509 161.458 167.512 161.574 167.526V167.526Z" fill="#263238"/>
<path d="M190.246 152.816C190.246 152.816 201.089 148.586 202.115 148.248C203.141 147.91 212.621 147.169 212.621 147.169L224.842 151.558C224.842 151.558 224.954 154.067 222.101 153.729C219.586 153.304 217.105 152.694 214.68 151.902L212.965 152.922L190.246 152.816Z" fill="#FFBE9D"/>
<path d="M224.253 154.425C224.537 155.001 225.279 155.087 225.848 155.391C226.375 155.699 226.806 156.146 227.095 156.683C227.383 157.221 227.518 157.827 227.483 158.436C227.388 159.654 226.985 160.827 226.312 161.846C226.105 162.257 225.806 162.615 225.438 162.892C225.249 163.023 225.025 163.093 224.796 163.093C224.566 163.093 224.342 163.023 224.153 162.892C223.973 162.671 223.851 162.409 223.8 162.128C223.749 161.848 223.77 161.559 223.862 161.29C224.213 159.178 223.756 156.503 224.253 154.418" fill="#FFBE9D"/>
<path d="M236.539 300.859L236.91 301.892C236.91 301.892 257.035 302.68 258.412 305.95L223.405 318.25L219.784 306.433C225.841 307.016 231.382 305.374 236.539 300.859Z" fill="#35CAE5"/>
<g opacity="0.6">
<path opacity="0.6" d="M224.643 308.909C224.342 309.131 224.132 309.456 224.055 309.822C223.979 310.189 224.039 310.57 224.226 310.895C224.437 311.21 224.762 311.431 225.132 311.511C225.503 311.591 225.89 311.525 226.212 311.325C226.531 311.091 226.752 310.747 226.832 310.359C226.911 309.971 226.844 309.567 226.642 309.227C226.39 308.928 226.032 308.739 225.644 308.699C225.255 308.658 224.866 308.769 224.557 309.008" fill="white"/>
</g>
<g opacity="0.6">
<path opacity="0.6" d="M223.405 318.25L222.538 315.41L256.406 304.659C256.406 304.659 258.2 304.792 258.392 305.983L223.405 318.25Z" fill="white"/>
</g>
<path d="M237.069 301.951C237.122 302.123 236.294 302.5 235.646 303.348C234.997 304.195 234.805 305.069 234.626 305.056C234.448 305.043 234.348 303.963 235.149 302.957C235.95 301.951 237.049 301.779 237.069 301.951Z" fill="white"/>
<path d="M241.273 302.177C241.372 302.329 240.73 302.878 240.405 303.805C240.081 304.732 240.18 305.56 240.008 305.612C239.836 305.665 239.386 304.732 239.816 303.587C240.246 302.441 241.213 302.018 241.273 302.177Z" fill="white"/>
<path d="M244.9 305.844C244.761 305.937 244.238 305.182 244.331 304.077C244.424 302.971 245.112 302.336 245.231 302.448C245.35 302.561 245.039 303.243 244.96 304.136C244.88 305.03 245.066 305.765 244.9 305.844Z" fill="white"/>
</svg>
